<svg width="20" height="20" viewBox="0 0 20 20" fill="none" xmlns="http://www.w3.org/2000/svg">
<path d="M17.2303 7.35088V6.4682C17.2323 5.58818 16.8836 4.7436 16.2613 4.12133C15.6391 3.49905 14.7945 3.15037 13.9145 3.15241H13.2774" stroke="#9E9C9F" stroke-width="1.5" stroke-linecap="round" stroke-linejoin="round"/>
<path d="M3.41447 7.35087V6.46819C3.41243 5.5895 3.76006 4.74609 4.38067 4.12404C5.00129 3.50199 5.84388 3.1524 6.72258 3.1524H7.39035" stroke="#9E9C9F" stroke-width="1.5" stroke-linecap="round" stroke-linejoin="round"/>
<path d="M17.2303 10.7204V13.6524C17.2323 14.5324 16.8836 15.377 16.2613 15.9993C15.6391 16.6216 14.7945 16.9702 13.9145 16.9682H13.2774" stroke="#9E9C9F" stroke-width="1.5" stroke-linecap="round" stroke-linejoin="round"/>
<path d="M3.41447 10.7204V13.6524C3.41242 14.5324 3.76111 15.377 4.38338 15.9993C5.00566 16.6216 5.85023 16.9702 6.73026 16.9682H7.39035" stroke="#9E9C9F" stroke-width="1.5" stroke-linecap="round" stroke-linejoin="round"/>
<path d="M18.7116 10.7204H1.9024" stroke="#9E9C9F" stroke-width="1.5" stroke-linecap="round" stroke-linejoin="round"/>
</svg>
