<svg width="17" height="15" viewBox="0 0 17 15" fill="none" xmlns="http://www.w3.org/2000/svg">
<g clip-path="url(#clip0_85_4052)">
<g clip-path="url(#clip1_85_4052)">
<path fill-rule="evenodd" clip-rule="evenodd" d="M1.52596 6.59C5.87296 4.696 8.77196 3.448 10.223 2.844C14.364 1.122 15.225 0.821997 15.786 0.812997C15.909 0.809997 16.185 0.840997 16.364 0.985997C16.514 1.108 16.556 1.274 16.576 1.39C16.596 1.506 16.62 1.77 16.601 1.977C16.376 4.335 15.405 10.057 14.911 12.699C14.702 13.816 14.291 14.191 13.892 14.228C13.026 14.308 12.368 13.655 11.53 13.105C10.217 12.245 9.47496 11.71 8.20096 10.87C6.72896 9.9 7.68296 9.366 8.52296 8.495C8.74296 8.267 12.558 4.796 12.632 4.481C12.642 4.441 12.65 4.295 12.562 4.217C12.475 4.14 12.347 4.167 12.254 4.187C12.122 4.217 10.025 5.603 5.96396 8.345C5.36796 8.754 4.82896 8.953 4.34596 8.943C3.81296 8.931 2.78896 8.642 2.02796 8.394C1.09396 8.091 0.35196 7.93 0.41596 7.414C0.44996 7.146 0.81996 6.87 1.52596 6.59Z" fill="#2A2F33"/>
</g>
</g>
<defs>
<clipPath id="clip0_85_4052">
<rect width="17" height="15" fill="white"/>
</clipPath>
<clipPath id="clip1_85_4052">
<rect width="17" height="15" fill="white"/>
</clipPath>
</defs>
</svg>
