<svg width="21" height="13" viewBox="0 0 21 13" fill="none" xmlns="http://www.w3.org/2000/svg">
<g clip-path="url(#clip0_85_4045)">
<g clip-path="url(#clip1_85_4045)">
<path d="M20.196 1.166C20.344 0.696 20.196 0.355 19.539 0.355H17.358C16.807 0.355 16.553 0.654 16.404 0.974C16.404 0.974 15.282 3.707 13.714 5.479C13.206 5.992 12.974 6.163 12.698 6.163C12.549 6.163 12.358 5.992 12.358 5.522V1.145C12.358 0.59 12.189 0.333 11.723 0.333H8.29199C7.95299 0.333 7.74199 0.59 7.74199 0.846C7.74199 1.38 8.52499 1.508 8.60999 3.002V6.248C8.60999 6.953 8.48299 7.081 8.20699 7.081C7.46599 7.081 5.66499 4.326 4.58499 1.187C4.37299 0.568 4.16199 0.333 3.61099 0.333H1.40799C0.772992 0.333 0.666992 0.633 0.666992 0.953C0.666992 1.529 1.40799 4.433 4.11899 8.276C5.91899 10.903 8.48299 12.312 10.791 12.312C12.189 12.312 12.359 11.992 12.359 11.458V9.472C12.359 8.832 12.486 8.725 12.931 8.725C13.249 8.725 13.821 8.895 15.113 10.155C16.595 11.65 16.849 12.333 17.675 12.333H19.857C20.493 12.333 20.789 12.013 20.62 11.393C20.429 10.775 19.709 9.878 18.777 8.81C18.268 8.212 17.506 7.55 17.273 7.23C16.955 6.803 17.04 6.632 17.273 6.248C17.252 6.248 19.921 2.448 20.196 1.166Z" fill="#2A2F33"/>
</g>
</g>
<defs>
<clipPath id="clip0_85_4045">
<rect width="21" height="13" fill="white"/>
</clipPath>
<clipPath id="clip1_85_4045">
<rect width="21" height="13" fill="white"/>
</clipPath>
</defs>
</svg>
