<svg width="5" height="11" viewBox="0 0 5 11" fill="none" xmlns="http://www.w3.org/2000/svg">
<path d="M3.68819 5.49348C3.62439 5.43052 3.58379 5.39814 3.55043 5.35676L0.196336 1.20669C0.0877892 1.08844 0.0206523 0.922383 0.00917041 0.743745C-0.0023115 0.565107 0.0427652 0.387948 0.134836 0.249858C0.226907 0.111768 0.358727 0.0236137 0.502326 0.00409936C0.645925 -0.015415 0.790003 0.0352464 0.903989 0.145334C0.937937 0.179067 0.969919 0.215736 0.999696 0.255068L4.76998 4.93222C5.0774 5.31179 5.07595 5.68237 4.76998 6.06373C3.50741 7.62998 2.2434 9.19563 0.977943 10.7607C0.920991 10.8425 0.849354 10.9066 0.768795 10.9478C0.688236 10.989 0.601003 11.0062 0.514113 10.998C0.427223 10.9898 0.343102 10.9564 0.268516 10.9005C0.19393 10.8446 0.130962 10.7677 0.0846762 10.6761C0.0230505 10.5549 -0.00619615 10.4126 0.00109305 10.2695C0.00838225 10.1265 0.0518364 9.98988 0.125279 9.87921C0.161532 9.82524 0.202135 9.77667 0.242738 9.72631L3.54898 5.6338C3.58379 5.59242 3.62584 5.55824 3.68819 5.49348Z" fill="#2A2F33"/>
</svg>
